/* XPM */
static char *bitcoin32_xpm[] = {
/* width height num_colors chars_per_pixel */
"    32    32      256            2",
/* colors */
"`` c #1ca2e4",
"`. c #948a84",
"`# c #747a7c",
"`a c #5c92b4",
"`b c #c4c6c4",
"`c c #7c929c",
"`d c #3c9ac4",
"`e c #acaaac",
"`f c #949a9c",
"`g c #5c9abc",
"`h c #4c96bc",
"`i c #84827c",
"`j c #e4e6e4",
"`k c #849aa4",
"`l c #2c9ed4",
"`m c #94928c",
"`n c #6c8e9c",
"`o c #6c8a9c",
"`p c #3c9ecc",
"`q c #a4a2a4",
"`r c #4c9ac4",
"`s c #d4d6d4",
"`t c #8c8e8c",
"`u c #bcbabc",
"`v c #848a8c",
"`w c #f4f6f4",
"`x c #a4968c",
"`y c #249edc",
"`z c #a49e9c",
"`A c #6c9eb4",
"`B c #8c9a9c",
"`C c #6c96ac",
"`D c #5c96b4",
"`E c #4496c4",
"`F c #9c9a94",
"`G c #349ed4",
"`H c #9c9694",
"`I c #9c8e8c",
"`J c #7c8284",
"`K c #cccecc",
"`L c #7c96a4",
"`M c #b4b2b4",
"`N c #649ab4",
"`O c #5492b4",
"`P c #8c8684",
"`Q c #eceeec",
"`R c #94969c",
"`S c #748e9c",
"`T c #7c868c",
"`U c #549abc",
"`V c #24a2dc",
"`W c #8c9eac",
"`X c #948e84",
"`Y c #7c7a7c",
"`Z c #648ea4",
"`0 c #848e94",
"`1 c #848684",
"`2 c #2ca2dc",
"`3 c #949694",
"`4 c #449ecc",
"`5 c #4c9ec4",
"`6 c #dcdedc",
"`7 c #8c9294",
"`8 c #c4c2c4",
".` c #8c8a84",
".. c #fcfefc",
".# c #8c9ea4",
".a c #449ac4",
".b c #9c9e9c",
".c c #5496b4",
".d c #1ca2ec",
".e c #cccacc",
".f c #7c92a4",
".g c #3c9acc",
".h c #acaeac",
".i c #949ea4",
".j c #5c9ebc",
".k c #848284",
".l c #eceaec",
".m c #849eac",
".n c #2c9edc",
".o c #949294",
".p c #6c8ea4",
".q c #748a9c",
".r c #3c9ed4",
".s c #a4a6a4",
".t c #8c8e94",
".u c #bcbebc",
".v c #fcfafc",
".w c #a49694",
".x c #249ee4",
".y c #749aac",
".z c #8c9aa4",
".A c #7496a4",
".B c #6496ac",
".C c #9c9a9c",
".D c #349edc",
".E c #d4d2d4",
".F c #b4b6b4",
".G c #649abc",
".H c #f4f2f4",
".I c #74929c",
".J c #7c8a8c",
".K c #24a2e4",
".L c #948e8c",
".M c #7c7e7c",
".N c #6492ac",
".O c #4c9ecc",
".P c #e4e2e4",
".Q c #8c8a8c",
".R c #449acc",
".S c #5496bc",
".T c #000000",
".U c #000000",
".V c #000000",
".W c #000000",
".X c #000000",
".Y c #000000",
".Z c #000000",
".0 c #000000",
".1 c #000000",
".2 c #000000",
".3 c #000000",
".4 c #000000",
".5 c #000000",
".6 c #000000",
".7 c #000000",
".8 c #000000",
"#` c #000000",
"#. c #000000",
"## c #000000",
"#a c #000000",
"#b c #000000",
"#c c #000000",
"#d c #000000",
"#e c #000000",
"#f c #000000",
"#g c #000000",
"#h c #000000",
"#i c #000000",
"#j c #000000",
"#k c #000000",
"#l c #000000",
"#m c #000000",
"#n c #000000",
"#o c #000000",
"#p c #000000",
"#q c #000000",
"#r c #000000",
"#s c #000000",
"#t c #000000",
"#u c #000000",
"#v c #000000",
"#w c #000000",
"#x c #000000",
"#y c #000000",
"#z c #000000",
"#A c #000000",
"#B c #000000",
"#C c #000000",
"#D c #000000",
"#E c #000000",
"#F c #000000",
"#G c #000000",
"#H c #000000",
"#I c #000000",
"#J c #000000",
"#K c #000000",
"#L c #000000",
"#M c #000000",
"#N c #000000",
"#O c #000000",
"#P c #000000",
"#Q c #000000",
"#R c #000000",
"#S c #000000",
"#T c #000000",
"#U c #000000",
"#V c #000000",
"#W c #000000",
"#X c #000000",
"#Y c #000000",
"#Z c #000000",
"#0 c #000000",
"#1 c #000000",
"#2 c #000000",
"#3 c #000000",
"#4 c #000000",
"#5 c #000000",
"#6 c #000000",
"#7 c #000000",
"#8 c #000000",
"a` c #000000",
"a. c #000000",
"a# c #000000",
"aa c #000000",
"ab c #000000",
"ac c #000000",
"ad c #000000",
"ae c #000000",
"af c #000000",
"ag c #000000",
"ah c #000000",
"ai c #000000",
"aj c #000000",
"ak c #000000",
"al c #000000",
"am c #000000",
"an c #000000",
"ao c #000000",
"ap c #000000",
"aq c #000000",
"ar c #000000",
"as c #000000",
"at c #000000",
"au c #000000",
"av c #000000",
"aw c #000000",
"ax c #000000",
"ay c #000000",
"az c #000000",
"aA c #000000",
"aB c #000000",
"aC c #000000",
"aD c #000000",
"aE c #000000",
"aF c #000000",
"aG c #000000",
"aH c #000000",
"aI c #000000",
"aJ c #000000",
"aK c #000000",
"aL c #000000",
"aM c #000000",
"aN c #000000",
"aO c #000000",
"aP c #000000",
"aQ c #000000",
"aR c #000000",
"aS c #000000",
"aT c #000000",
"aU c #000000",
"aV c #000000",
"aW c #000000",
"aX c #000000",
"aY c #000000",
"aZ c #000000",
"a0 c #000000",
"a1 c #000000",
"a2 c #000000",
"a3 c #000000",
"a4 c #000000",
"a5 c #000000",
"a6 c #000000",
"a7 c #000000",
"a8 c #000000",
/* pixels */
"......................`j`b.u`8`8`8.u.u.e.P......................",
"...................e`8.e.e`8.F`M.F.F`8`b`K`8`b.v................",
"...............E`b.E.F`q.b`q`q.b`q`q`q.b.s.F.E`b.E..............",
"............`8.E`M.b`q`q`q.b.s`q`q.b.s`q`q`z.b`M.E.u.v..........",
".........v.u`K`q.b`q.b`q.b.s.b`q.b.s`q.b`q.b`q.b`q`K`8`w........",
"........`u.e.C.b`q.b`q.b`q.b`q.b`q.b`q.b`q.b`q.b.b.C`b.u.v......",
".......u`K.C.b`z`z`z`z`z`z`z`z`z`z`z`z`z`z`z`z`z`z.b.C.e`u......",
".....E.E.b.C.b.i.m.m.m.m.m.#.m.m.m.m.m.m.m.m.m`W`W.b.b.b.E`K....",
"...v.u.h.C.C.b`5.K`y`V.K`V.K`V`V`2.K`V`V`V.K`V.K.r.i.C.C`e`8`w..",
"...e.e`3.C.C`F.O````.x.n`y.n.x.x``.x.n.x.n`y.x```G.C`F.C`3.e`b..",
"..`u.h`3.C`F.C`4``.x`A`f.z`B`k.K```g`f`B`f`k.n``.r`f`F`f`3.h`u..",
".P`b.C`3`R`3`H`4````.y`H`H`H`B.n.d`N.w`H.C`R.D```G`R`3.C`3`3.e`6",
"`8`8`7`H`3`H`3.O````.A.w`H`x`B`y.d`N`x`H`H`H`l``.r`3`3`3`H.o.u`8",
".F.F.o`3`3`3`3.R``.x`r.G`N.G`g.x``.R`N`g`N`g`2```G`R`3`3`R.o`M.F",
".F`e.o.o.o.o.o`r.d.x````.d````.x.K``````.d```````G.o.o.o.o`7.s`u",
"`u`q`7`m`7.o`m`4``.x``.x```y``.x``.x`y.x```y.x``.g`7.o`m.o`7`q`u",
".F`q`t`7`m.o`m.a``.x.S`c.I.f`G``.x```U`c.f.A.n.d`G.t.o`7`7.L.b.F",
".F.s`t.L.t`t.L.R.d```C`I.L`c`y.x````.r`t.L`7`l.d`G`t`t.L`t`t.s.F",
"`M`M.Q`t`t`t`t`r`y.x`C`X.L`r```y.g.x``.S`I`t`G.x.g.t`t`t`t.Q`M`M",
".u.u`1`t`t.Q`t`t`c`0`v`..N``.d.R`0`l``.x.B.``0`0`0`t.Q`t.Q`v`u`u",
"`6`8.Q.Q.Q.Q.Q.Q.`.``..N`V``.x`n`..N.K``.x`a`..`.`.Q.Q.Q.Q.`.u`s",
".v`M.b`v.Q`v`v.``P`v.S.x````.c.`.Q.``h.d````.a`S.``v.``v`1.b.F.v",
"...u`8.k`v`P`P.J`a`l.d`````h`P`P`v`P`1`E``.x``.x`h`1.Q`P`1.u`u..",
"..`w.F.b.k`1`P.p``.d``.x`O`1`1`1`1`v`P`1`O.K``.d`d`P`1.k`f`u.H..",
"....`b`8`1`1`1`T.n.K`E.q`P.k`1`1`1`1`1`1`P`o.g.x`o`P.k`1`8.u....",
"......`M.u.M.k.k`Z`Z`i`i.k`1`1.k`1.k.k.k.k`i`1`o`1`J.M`u.h......",
".......H.h.F.M.k`i`i.k.k`J.k.k`J.k.k`J.k.k.k`J`i.k.M`M.h.H......",
".........H.h`u`J`Y.k.M.k`J`i`J.k`J.k`J`i`J`J`i`Y.M.F`M`Q........",
"...........H.h`8`3`Y.M.M.M.M.M.M.M.M.M.M.M`Y`Y`3`8.h`Q..........",
"...............u`M`u`f.M`Y`Y`Y.M.M`Y`Y`Y.M`3`u.F`u..............",
".................H.F`e`u.h`q`3`7.L`R.b.h`u.h`M.l................",
".....................v`K`M`e`e.h.h`e.h`M`K`w...................."
};
