/* XPM */
static char *bitcoin16_xpm[] = {
/* width height num_colors chars_per_pixel */
"    16    16      256            2",
/* colors */
"`` c #ffffff",
"`. c #e5e5e5",
"`# c #bababa",
"`a c #b4b4b4",
"`b c #b7b7b7",
"`c c #b3b3b3",
"`d c #e3e3e3",
"`e c #b5b5b5",
"`f c #aaaaaa",
"`g c #a3a3a3",
"`h c #b6b6b6",
"`i c #fefefe",
"`j c #b2b2b2",
"`k c #b7b6b5",
"`l c #a5a2a0",
"`m c #a29f9e",
"`n c #a3a09e",
"`o c #a3a09f",
"`p c #a39f9e",
"`q c #b1b2b2",
"`r c #b9b9b9",
"`s c #b4b3b3",
"`t c #989c9f",
"`u c #8e9ea5",
"`v c #8e9ea7",
"`w c #8d9ea7",
"`x c #8f9ea6",
"`y c #8e9ea6",
"`z c #969ca0",
"`A c #b8b8b8",
"`B c #adaeae",
"`C c #a39c99",
"`D c #709cb4",
"`E c #24a0e1",
"`F c #2ca0dc",
"`G c #2f9fdb",
"`H c #2aa0dd",
"`I c #29a0de",
"`J c #2e9fdb",
"`K c #22a0e2",
"`L c #689db9",
"`M c #a39c98",
"`N c #aeaeae",
"`O c #a9aaaa",
"`P c #9d9793",
"`Q c #6a9bb5",
"`R c #1fa0e4",
"`S c #7b9aaa",
"`T c #9c9895",
"`U c #519cc4",
"`V c #3c9ed2",
"`W c #959899",
"`X c #8c989f",
"`Y c #619cbb",
"`Z c #9e9793",
"`0 c #a9a9a9",
"`1 c #ababab",
"`2 c #9c9d9d",
"`3 c #9b9490",
"`4 c #6a99b2",
"`5 c #20a0e3",
"`6 c #679ab4",
"`7 c #8298a3",
"`8 c #489cc9",
".` c #379ed4",
".. c #7b98a7",
".# c #7498ac",
".a c #24a0e2",
".b c #619ab8",
".c c #9c9490",
".d c #9b9c9c",
".e c #aaabab",
".f c #919292",
".g c #98928f",
".h c #6897b0",
".i c #1ea0e4",
".j c #24a0e0",
".k c #289fde",
".l c #23a0e1",
".m c #269fdf",
".n c #1ca1e6",
".o c #6198b5",
".p c #99928e",
".q c #919191",
".r c #8e8f8f",
".s c #958f8b",
".t c #6396b1",
".u c #19a1e9",
".v c #6c95aa",
".w c #7b929e",
".x c #279fdf",
".y c #1ba1e7",
".z c #6097b4",
".A c #80929b",
".B c #1da1e6",
".C c #5998b8",
".D c #968e8a",
".E c #a6a6a6",
".F c #949595",
".G c #8e8c8a",
".H c #78909c",
".I c #5796b6",
".J c #8a8d8e",
".K c #5996b7",
".L c #2b9edb",
".M c #3e9bcb",
".N c #2f9ed8",
".O c #818f96",
".P c #5e94b1",
".Q c #7491a1",
".R c #8f8c8a",
".S c #939494",
".T c #b1b1b1",
".U c #888889",
".V c #8d8987",
".W c #908985",
".X c #5895b5",
".Y c #1ba1e8",
".Z c #5e93af",
".0 c #838b8f",
".1 c #299edc",
".2 c #2e9dd8",
".3 c #778e9a",
".4 c #8c8a88",
".5 c #888989",
".6 c #b0b0b0",
".7 c #e2e2e2",
".8 c #9fa0a0",
"#` c #898786",
"#. c #7d8990",
"## c #339dd4",
"#a c #1ca2e7",
"#b c #5294b7",
"#c c #898785",
"#d c #8c8682",
"#e c #748b97",
"#f c #2d9dd7",
"#g c #1aa2e9",
"#h c #668fa4",
"#i c #8c8683",
"#j c #a09f9f",
"#k c #dfdfdf",
"#l c #9d9d9c",
"#m c #7b8488",
"#n c #4894bc",
"#o c #698c9e",
"#p c #878381",
"#q c #858484",
"#r c #838485",
"#s c #888481",
"#t c #7c868c",
"#u c #5391b2",
"#v c #75858d",
"#w c #9d9c9b",
"#x c #fcfcfc",
"#y c #9a9b9a",
"#z c #84817e",
"#A c #837f7c",
"#B c #808181",
"#C c #808282",
"#D c #818282",
"#E c #817f7e",
"#F c #85807d",
"#G c #9a9a99",
"#H c #a5a6a6",
"#I c #fbfbfb",
"#J c #fdfdfd",
"#K c #afafaf",
"#L c #9c9c9c",
"#M c #909191",
"#N c #848585",
"#O c #7c7d7d",
"#P c #848686",
"#Q c #adadad",
"#R c #dcdcdc",
"#S c #9e9e9e",
"#T c #9d9e9e",
"#U c #acacac",
"#V c #dbdbdb",
"#W c #000000",
"#X c #000000",
"#Y c #000000",
"#Z c #000000",
"#0 c #000000",
"#1 c #000000",
"#2 c #000000",
"#3 c #000000",
"#4 c #000000",
"#5 c #000000",
"#6 c #000000",
"#7 c #000000",
"#8 c #000000",
"a` c #000000",
"a. c #000000",
"a# c #000000",
"aa c #000000",
"ab c #000000",
"ac c #000000",
"ad c #000000",
"ae c #000000",
"af c #000000",
"ag c #000000",
"ah c #000000",
"ai c #000000",
"aj c #000000",
"ak c #000000",
"al c #000000",
"am c #000000",
"an c #000000",
"ao c #000000",
"ap c #000000",
"aq c #000000",
"ar c #000000",
"as c #000000",
"at c #000000",
"au c #000000",
"av c #000000",
"aw c #000000",
"ax c #000000",
"ay c #000000",
"az c #000000",
"aA c #000000",
"aB c #000000",
"aC c #000000",
"aD c #000000",
"aE c #000000",
"aF c #000000",
"aG c #000000",
"aH c #000000",
"aI c #000000",
"aJ c #000000",
"aK c #000000",
"aL c #000000",
"aM c #000000",
"aN c #000000",
"aO c #000000",
"aP c #000000",
"aQ c #000000",
"aR c #000000",
"aS c #000000",
"aT c #000000",
"aU c #000000",
"aV c #000000",
"aW c #000000",
"aX c #000000",
"aY c #000000",
"aZ c #000000",
"a0 c #000000",
"a1 c #000000",
"a2 c #000000",
"a3 c #000000",
"a4 c #000000",
"a5 c #000000",
"a6 c #000000",
"a7 c #000000",
"a8 c #000000",
/* pixels */
"`````````.`#`a`b`b`c`#`d````````",
"```````#`e`a`f`g`g`f`a`h`#``````",
"```i`j`k`l`m`n`o`o`n`p`l`k`q`i``",
"```r`s`t`u`v`w`x`x`w`w`y`z`s`A``",
"`.`B`C`D`E`F`G`H`I`J`J`K`L`M`N`d",
"`e`O`P`Q`R`S`T`U`V`W`X`E`Y`Z`0`a",
"`1`2`3`4`5`6`7`8.`...#.a.b.c.d.e",
"`1.f.g.h.i.j.k.l`K.k.m.n.o.p.q`1",
"`0.r.s.t.u.v.w.x.y.z.A.B.C.D.r`0",
".E.F.G.H.I.J.K.L.M.N.O.P.Q.R.S.E",
".T.d.U.V.W.X.Y.Z.0.1.2.3.4.5.d.6",
".7.8#`#.###a#b#c#d#e#f#g#h#i#j#k",
"``.T#l#m#n#o#p#q#r#s#t#u#v#w.6``",
"``#x.E#y#z#A#B#C#D#B#E#F#G#H#I``",
"````#J#K#L#M#N#O#O#P#M#L#Q#x````",
"````````#R`N#S.d#L#T#U#V````````"
};
