/* XPM */
static char *bitcoin64_xpm[] = {
/* width height num_colors chars_per_pixel */
"    64    64      256            2",
/* colors */
"`` c #14a2ec",
"`. c #8c827c",
"`# c #747674",
"`a c #c4c2c4",
"`b c #5492b4",
"`c c #9ca2a4",
"`d c #748e9c",
"`e c #8c9294",
"`f c #349acc",
"`g c #549abc",
"`h c #e4e2e4",
"`i c #9c928c",
"`j c #74868c",
"`k c #749eb4",
"`l c #4496c4",
"`m c #648ea4",
"`n c #84827c",
"`o c #8c8a84",
"`p c #acb2b4",
"`q c #848e94",
"`r c #8c9aa4",
"`s c #ecf2f4",
"`t c #d4d2d4",
"`u c #449ecc",
"`v c #6496ac",
"`w c #249edc",
"`x c #9c8e8c",
"`y c #649ab4",
"`z c #9c9a94",
"`A c #4c96bc",
"`B c #848a84",
"`C c #948a84",
"`D c #a4aaac",
"`E c #7c8e94",
"`F c #94928c",
"`G c #3c9acc",
"`H c #6c8e9c",
"`I c #5c92ac",
"`J c #eceaec",
"`K c #748a94",
"`L c #849aa4",
"`M c #bcbabc",
"`N c #fcfafc",
"`O c #d4dadc",
"`P c #2c9edc",
"`Q c #a49a94",
"`R c #7c7e7c",
"`S c #cccacc",
"`T c #349edc",
"`U c #84868c",
"`V c #8c8e94",
"`W c #8496a4",
"`X c #949a94",
"`Y c #24a2dc",
"`Z c #6c9ab4",
"`0 c #4c9abc",
"`1 c #94969c",
"`2 c #6c92ac",
"`3 c #1ca2e4",
"`4 c #8c8684",
"`5 c #7c7a7c",
"`6 c #a4a2a4",
"`7 c #74929c",
"`8 c #349ed4",
".` c #549ec4",
".. c #ece6e4",
".# c #7c9aac",
".a c #449ac4",
".b c #848684",
".c c #8c8e8c",
".d c #b4b2b4",
".e c #849294",
".f c #f4f2f4",
".g c #6c96ac",
".h c #9c9e9c",
".i c #848a94",
".j c #948e84",
".k c #acaaac",
".l c #7c929c",
".m c #949694",
".n c #6c92a4",
".o c #5c96b4",
".p c #7c8a8c",
".q c #dcdadc",
".r c #949ea4",
".s c #6c9eb4",
".t c #8c8284",
".u c #747a7c",
".v c #c4c6c4",
".w c #5496bc",
".x c #8c969c",
".y c #349ad4",
".z c #549ac4",
".A c #e4e6e4",
".B c #9c9694",
".C c #7c8284",
".D c #6492ac",
".E c #848284",
".F c #8c8a8c",
".G c #d4d6d4",
".H c #4c9ecc",
".I c #6496b4",
".J c #249ee4",
".K c #9c9a9c",
".L c #4c96c4",
".M c #848a8c",
".N c #7c8e9c",
".O c #949294",
".P c #3c9ed4",
".Q c #6c8ea4",
".R c #5c92b4",
".S c #eceeec",
".T c #849eac",
".U c #bcbebc",
".V c #fcfefc",
".W c #a49e9c",
".X c #cccecc",
".Y c #949a9c",
".Z c #24a2e4",
".0 c #4c9ac4",
".1 c #1ca2ec",
".2 c #a4a6a4",
".3 c #7492a4",
".4 c #7c9eb4",
".5 c #449acc",
".6 c #b4b6b4",
".7 c #84929c",
".8 c #f4f6f4",
"#` c #948e8c",
"#. c #acaeac",
"## c #dcdedc",
"#a c #7c8a94",
"#b c #6c9ebc",
"#c c #000000",
"#d c #000000",
"#e c #000000",
"#f c #000000",
"#g c #000000",
"#h c #000000",
"#i c #000000",
"#j c #000000",
"#k c #000000",
"#l c #000000",
"#m c #000000",
"#n c #000000",
"#o c #000000",
"#p c #000000",
"#q c #000000",
"#r c #000000",
"#s c #000000",
"#t c #000000",
"#u c #000000",
"#v c #000000",
"#w c #000000",
"#x c #000000",
"#y c #000000",
"#z c #000000",
"#A c #000000",
"#B c #000000",
"#C c #000000",
"#D c #000000",
"#E c #000000",
"#F c #000000",
"#G c #000000",
"#H c #000000",
"#I c #000000",
"#J c #000000",
"#K c #000000",
"#L c #000000",
"#M c #000000",
"#N c #000000",
"#O c #000000",
"#P c #000000",
"#Q c #000000",
"#R c #000000",
"#S c #000000",
"#T c #000000",
"#U c #000000",
"#V c #000000",
"#W c #000000",
"#X c #000000",
"#Y c #000000",
"#Z c #000000",
"#0 c #000000",
"#1 c #000000",
"#2 c #000000",
"#3 c #000000",
"#4 c #000000",
"#5 c #000000",
"#6 c #000000",
"#7 c #000000",
"#8 c #000000",
"a` c #000000",
"a. c #000000",
"a# c #000000",
"aa c #000000",
"ab c #000000",
"ac c #000000",
"ad c #000000",
"ae c #000000",
"af c #000000",
"ag c #000000",
"ah c #000000",
"ai c #000000",
"aj c #000000",
"ak c #000000",
"al c #000000",
"am c #000000",
"an c #000000",
"ao c #000000",
"ap c #000000",
"aq c #000000",
"ar c #000000",
"as c #000000",
"at c #000000",
"au c #000000",
"av c #000000",
"aw c #000000",
"ax c #000000",
"ay c #000000",
"az c #000000",
"aA c #000000",
"aB c #000000",
"aC c #000000",
"aD c #000000",
"aE c #000000",
"aF c #000000",
"aG c #000000",
"aH c #000000",
"aI c #000000",
"aJ c #000000",
"aK c #000000",
"aL c #000000",
"aM c #000000",
"aN c #000000",
"aO c #000000",
"aP c #000000",
"aQ c #000000",
"aR c #000000",
"aS c #000000",
"aT c #000000",
"aU c #000000",
"aV c #000000",
"aW c #000000",
"aX c #000000",
"aY c #000000",
"aZ c #000000",
"a0 c #000000",
"a1 c #000000",
"a2 c #000000",
"a3 c #000000",
"a4 c #000000",
"a5 c #000000",
"a6 c #000000",
"a7 c #000000",
"a8 c #000000",
/* pixels */
".V.V.V.V.V.V.V.V.V.V.V.V.V.V.V.V.V.V.V.V.V.V.V.V.V.V.f`h.X.v`a.U`a`a.v.X`h.S.V.V.V.V.V.V.V.V.V.V.V.V.V.V.V.V.V.V.V.V.V.V.V.V.V.V",
".V.V.V.V.V.V.V.V.V.V.V.V.V.V.V.V.V.V.V.V.V.V.f.X`a`S##.f.8`N.8.8.8.8`N.8.f`h`S`a`S.S.V.V.V.V.V.V.V.V.V.V.V.V.V.V.V.V.V.V.V.V.V.V",
".V.V.V.V.V.V.V.V.V.V.V.V.V.V.V.V.V.V.V.V`t`a`h`N.8`h`S`M#..k.k`D.k.k.k#..6`S##.8`N.A`a.X`N.V.V.V.V.V.V.V.V.V.V.V.V.V.V.V.V.V.V.V",
".V.V.V.V.V.V.V.V.V.V.V.V.V.V.V.V.V`N`a`t.8.S`S.d.2.h.h`6`6.2`6`6`6`6`6`6`6`c.W.2.d`S.S`N`t`a.f.V.V.V.V.V.V.V.V.V.V.V.V.V.V.V.V.V",
".V.V.V.V.V.V.V.V.V.V.V.V.V.V.V.V`S`t.V`h.6`6.h`6`6.2`6.2.2`6.2.2.2.2.2.2`6.2`6`6`c.h`6.d##.V.q`a.V.V.V.V.V.V.V.V.V.V.V.V.V.V.V.V",
".V.V.V.V.V.V.V.V.V.V.V.V.V.V##.v`N##.d.h.W`6.2.2`6.2`6.2`6.2`6`6`6`6`6.2`6.2.2`6.2`6`6`c.h#..q`N`S.G.V.V.V.V.V.V.V.V.V.V.V.V.V.V",
".V.V.V.V.V.V.V.V.V.V.V.V.V`a.A.f.6.h.W`6`c.2`6`6`6`6`6`6`6`6.2`6.2`6`6`6`6`6`6`6`6.2`6`6`6`6.K.d.S.S`a.V.V.V.V.V.V.V.V.V.V.V.V.V",
".V.V.V.V.V.V.V.V.V.V.V`N.U.V.G`6.h`6`6`c`6`6`6`c`6`6`c`6`6`c`6`6`c`6`6`c`6`6`c.2`6`c`6.2`6`c`6.h`6.X.V`a.f.V.V.V.V.V.V.V.V.V.V.V",
".V.V.V.V.V.V.V.V.V.V`J.v`N.U.K.W`6`6`6`6`6`c`6`6`6`c`6`6`6`6`6`c`6`6`6`6`6`c`6`6`6`6`6.h`6`6`6`c`6.K.6`N`S`h.V.V.V.V.V.V.V.V.V.V",
".V.V.V.V.V.V.V.V.V`J.X`N.d.K`6`c`6`c`c`6`c`6`6.h`6`6.h`6.h`6.h`6.W`c.W`c.W`6.h.W`c.W`c`6.h`6.h`6`c`6.K.k.8.G`h.V.V.V.V.V.V.V.V.V",
".V.V.V.V.V.V.V.V`J`S.8.k.K`c.h`6.h`6.W`c.W`c.W`c.h`6.h`6.h`6.h`6.h`6.h`6.h`c.W`c.W`c.W`c.W`c.W`c.W`c`c.h.2.f`t`h.V.V.V.V.V.V.V.V",
".V.V.V.V.V.V.V.8.v`N.k.K`c.W`c.W`c.h.h`6.h`c.W`c.W`c.h`6.h`c.W`c.h`c.W.h`6.h`6.h`c.W`c.h`6.h`6.h`c.W`c.W.h.2.8.X.S.V.V.V.V.V.V.V",
".V.V.V.V.V.V.V`M.V#..K.h.h.W.h.h.W`c.W.h.W.h`c.W.h`6.h.h`6.h.h`6.h.W`c.h`c.W.h`6.h.h.W`c.h.W`c.W.h.W.h.h.h.K.k`N.U`N.V.V.V.V.V.V",
".V.V.V.V.V.V.U.V`M.K.h.h.W.h.h.h.h.W.h.h.h.W.h.h.h.h`6.h.h`6.h.h`c.h.h.W.h`c.h.h.W`c.h.W.h.h.h.h.h.h.h.W.h.h.Y.6.V`M.V.V.V.V.V.V",
".V.V.V.V.V.q`J.G.B.h.h.h.h.h.W.W.W.W.W.W.W.W.W.W.W.W.W.W.W.W.W.W.W.W.W.W.W.W.W.W.W.W.W.W.W.W.W.W.W.W.h.h.h.h.h.B.X.f`t.V.V.V.V.V",
".V.V.V.V.V`a.8.K.K.h.h.h.h.h.r.4.4`k.4.4.4`k.4.4.#.4`k.#.#.#.4.#.#.#.4`k.#.4.#`k.#`k.#`k.#.4`k.4`k.T.h.h.W.h.h.K.K.S`S`N.V.V.V.V",
".V.V.V.V`a.V.d.K.K.h.K.K.K`Q`k`3.J`w`3`w`3`w`3`w`3`Y`w`3`Y`3`Y`3`3`Y`3`Y`3`Y`3`Y`Y`Y`3`Y`3`Y`w`Y`3.H.K.h.K.h.K.h.K#..V.U.V.V.V.V",
".V.V.V.f.X`h.m.K.h.K.h.h.h`Q#b.1`3.J`3.J`w`3`w.Z`3`w`3`w.Z`3`w.Z`w`3`w.Z`w`3`w`3.J`3.J`w.J`3.J`3`3`u.K.K.K.K.K.K.K.m.q.q`J.V.V.V",
".V.V.V.U.V#.`1.K.K.K.K.K.K.K#b`3.J`w.J.Z`3.J`3.J`3.J`3.J`3.J`3.J.Z.J.Z`3`3.J.J`3.J`3.J`3.Z`w.Z`w`3.0.h.K.h.K.h.K.h`1.2.V`M.V.V.V",
".V.V`N`S.A.m.K`z.Y.K.Y.K.K`Q`y`3.J.Z`3`w.J`Y`P`Y`w`P`Y`w`P.Z`w.J`3`w.J`w`P`Y.J`P`Y`w`Y`P.Z`3.J`3`3.5.K`z.K`X.K.Y.K`z.O.q.G.f.V.V",
".V.V`S.8.d.O.K.Y.K`z.K.Y.K`z#b`3.J`w.J`3.H.Y`L`r`r`r`r`r`r.#`Y.Z`w`3`T`L`r`r`r`r`r`r`r`L`T`3`w.J`3.H.K`z.Y.K.K`X.K.Y.m.k`N.U.V.V",
".V.V.6.f.m.Y`z`X.K`X.Y`z.m`Q`y`3.J`3.Z`3.z`Q.B`z.B.K.B`z`z`L.J`3.J`3`8.Y`z.B`z`z.B`z.B.Y`8.J.Z.J`3.5`z`1`z.m.K.m.K.m.K.m`J.U.V.V",
".V`J.q`S.O.m.B`1.B`1.B.Y.B`z`Z`3.J`w`3`3.z`z`1.K.m.Y.m.K.B`L`P`3.J`3`8.Y.B.Y.B.Y`1.Y.B.Y`8`3.J`3`3.5`z.B.Y.B.Y.B.Y.B.Y`F.U`J##.V",
".V`S.8.k.m.m.K.m.Y.B.m.B`1.B`y`3.J.Z.J`3.z.B.m.m.B`1.B`1.B`L`w.Z.J`3`8.Y.B.m`1.B`X.B.B.Y`8.Z`w.J`3.5.B`1.B`1.m.B`1.m.B`1.2`N.U.V",
".V.6.8.K.m.m`1.B.m.Y.m.Y.m`Q`y`3.J.J`3`3.`.B`z`1`X`1`X.m`z`W.Z`3`w.Z`8`1.m.K.m`1.m`1.m`1`8`3.Z`3`3`u.B`X.m`z`1`X.B.Y.m.m.m.f.6.V",
".V`M`h.O.m.m.m`1.m.B.m.B.m`i`Z.1`w.Z.J`3.z.B.m.B.m.B.m.B.B`W`w.Z.J`3`8`1.B.m.B.m.B.B.B.m`8`3.J.J`3.5.B.m`1.m.m`1.m.m.B`1.c.q.v.8",
"`J`t`S.c.m.m.m.B.m.m`1.m`1`i`y`3.J`3`w.1.0.O.m`1.m.x.m.x.m`W`Y`3.J`3`8.x.m.x.m.x.m.x.m.x`T`3.J`Y`3`u.m.m.B.m.m.B.m.m.m.m#`.U##`h",
".G.A.6`V.O.m.O.m.O.m.O.m.m`i`y`3.J.Z.J`3`P`8`8`8`8`8`T`8`8`P.J.Z`w.Z`w`P`8`P`8`T`P`8`P`P`w.Z.J`3`3.0.O.m.O.m.O.m.O`1.O.m.O.k.f`S",
".v.8.2.O.m.O.m.O.m.O.m.O.O`i`y.1`w.Z`3`w.Z`3`3`3`3`3.J`3.J`3`w.Z`3.J.Z`3`3.J`3`3.J`3.J`3.J`Y`3.J`3.5.m.O.m.O.m.O.m.O.m.O`e.h.8.U",
"`M.f.h#`.O.O.O.O.O.O.O.m.O`i`y`3.J.J`w.Z.J.J.J.J.J.J.J.J`3`w.Z.J.J`3`w.J.J.J.J`w.J.J`Y.J.Z.J.J.J`3.5.O.O.O.O.O.O.O.O.O.m.O.Y.f.6",
".6.f.K`e.O.x`F.x.O.x`F`e.O.O.I`3.J`3.Z`3`w`3`w.Z`3`w`3`Y.J.Z`3`w.Z`w.Z`3`w`3.Z`3.J`3`3`w`3`w`3`Y`3`u`F.m.O.m.O.x`F.m`e.O`e.m.f.d",
".d.f.m`e`F`F`e`F`F`e.O.O.O`F`y`3.J`Y.J`w`3`3`3`3`3`3`3`3.J`3`w.Z`3.J.J.Z.J`3`3`3`3.J`3`3.J.Z.J.J`3.5.O`F`e`F`e`F`e.O`F`e`F.O.f.d",
".d`s.m#``e.O`e.O.c.O`e`F`e`x`v`3.J.Z`3.Z`G.I.I.I.I.I.g.g.5`3.J.J`Y`3`w`3`u.g.g`v.g.I.g.I`P`3`Y.J`3.5`F.O`e`F`e#`.O`e`F#``e.O.S.d",
".d.f.m.c#`.c#``e#``e#`.c`F#`.I`3.J.J`w.1.0`x#`#``x#`#`#`.a`3.Z`3.J.J.Z`3.y`e`x#``F#``F#``8.J`3.J`3.5`F.c.O.c#``e#``V`e#``V.m.f.d",
".6.8.K.c`e.O.c`e#``e.c.O`V#``v`3.Z`3.J`3.0`F`F`e`e`F#`.7`Y.J.J`w.Z`3`w.J`3.o#``e#``e#``e`8`3.J`Y`3.5#``e#``e#``e`e#``e`e.c.m.f.d",
"`a.f`6.F.c.c#``V.c#``V.c.c#`.I`3.J`w`3`3.0.c.c#`.c.c#``g`3.Z.Z`3`3.J.Z`3.J`w.e#`.c.c#``V`8`3.J.Z`3.a.c#``V.c`V#`.c.c#`.c.c.K.8.6",
".X.A.d`B`V.c`V.c.c.c.c#`.c#``v.1`3.J`3`3.L#`.c.c.c#``q`P`3.J.J.J`8`w.J`Y.J`3.5#`.c`V.c`V`P`3.J`3`3.5.c.c.c#`.c.c`V.c`V.c.F.2`s`S",
".A.X.v`4.c.c.c.c`V.c`V.c.c#`.n`P`w`w`P`3`A#`.F.c`V#``A.1.J`Y`3`w`7.5`3`3.J.Z`3.D#`.c.c.c`G.Z`w`w.J.a#`.c`V.c`V.c.c#`.c.c.F`M.q.q",
"`N.d`h.M.c.c`V.c.c.c.c.c.c.c.F`q`q.e`E`q`q.F.c.c`C`2`3.J`Y`3`3.5`C.3`3.J`3`w`3.J`7`C.c.c`q.N`E.l`E`q.c.c.c.c.c.c.c`V.c.c.b.G.U`s",
".V.k.8#`.F.F.c.F.F.c.F.F.F.c.F.c.F.c.F.c.F.c.F`C.l`w.Z.Z`3.J.J.n.F`o.0`3.J.Z.J`3`P.3`C.c.c.F#`.F`C.c.F.c.F.F.c.F.c.F.c.F.F.f#..V",
".V`M.8.2`U.F.c.F.F.F.c.c.F.F.F.F.F.c.F.c.F.c`C`d`P`3.J`w.J`3.a.F.F.c`E`P`3.J`Y.J`3`w.n.F.F.F.c.F.F.F.F.c.F.F.c.F.F.F.c`U.h`N.d.V",
".V##.G.v.E.F.M.F.c.F.F.M.F`q`o.c.F`o.F.F`o`o`d`P`3.J.Z`3.J`w`d`C.F.F`C`I`3.J`3.J.Z`3.J.o`o`o.F.M.c.M.F.M.F.M.F.M.c.M.F.E.U##.G.V",
".V.V.k.f.M`o.M`o.M`o.M`o.F`B.F.M`o.M.F`o.F.R`w`3.J`Y.J.J`3`I`o.F`B.F`B.F.L`3.J`3`w.J`3.J`G.N`o`o.F`o.M.F`o.M.F`o.M.F`o.b`J.d.8.V",
".V.V`M.f.2.b.F.M.F.M`o.M`o.M`o.M.F`4`o`K`G`3.J.Z.J.Z`3`3.a`o.F.M.F`B.F`o.M`G`3.J.Z.Z.J`3`3`w.w.p`o.F`o.M.F`o.M.F`B.F.b.h.8#..V.V",
".V.V`J.U.A.E.b.F.b.F`U`4.M`U.F`4`4`d`A.J`3.J.Z`3`w.J`3`G`U`4`U`o`U.F`B.F`4#a.y`3.J`3`w.Z.J.Z`3`P.R.p`4.M`B`U`o.M`4`U.E`O`S`h.V.V",
".V.V.V.k.V.h.E.M.b`4.M`B`4`B.b.Q.a`w`3.Z.J.Z`w.J`3`3`l.M`4`B.F.b`B`4`U`B.M`4.M`G`3.J.Z`w`3.J.J`3.1.y.M`4.M`4.M.b.F.b.m.V.2.V.V.V",
".V.V.V`h`a`h.C`4`U`B`4`U`U`4`4`G.1.J.Z.J`3`w`3.Z`3`A`U`4.b`U.b`4`U.M.b`4.b.b`4.M`l`3`3.J.Z`w`3.J`3`A`4.b.b`U`4`U.b.C.G`t.G.V.V.V",
".V.V.V.V.k.8.k.C.b.b`U.b.b.b`4`I`3.J`3`w.Z`3`3`P`m`4.b.b`U`4.b`U.b`4`U.b`4`U.b.b.b`I`P`3`3.J.Z`3`w`K`4.b.b.b.b.b.E`6.V`6.V.V.V.V",
".V.V.V.V.S.d.8`4.E.b.b.b`U.b`4`K`P`3.J`3`3.J`A`j`4.b`U.b.b.b.b.b.b.b.b`U.b.b`U.b.b.t`K`l`3`3.J`3.L.b.b.b`U.b`U.b.b.S.6...V.V.V.V",
".V.V.V.V.V`a.q.X.C.E.b.b.b.b.b.t`l`3`3.J`l`K.E`4.E.b.b.b.b.b`U.b.b.b.b.b.b.b.b.E.b.b.t.b`H`f.1.J`H`..b.b.b.b.b`R.v...6.V.V.V.V.V",
".V.V.V.V.V.V`6.V.d`5.b.b.E.b.E`n`H`w`l`K`n.t.b.E.b.E.E.E.E.b.E.b.E.E.E.E.E.E.b.E.b.E.b.E`..b`I`A`n.E.b.E.b.E`5.2.V.W`N.V.V.V.V.V",
".V.V.V.V.V.V.f.h.V.h`R.E.b.E.b.E.C`j.E`n.b.E.C.b.E.C.b.b.E.E.b.E.b.b.b.E.b.E.b.E.b.E.C.b.C.E`n`n.E.E.b.E.b`R`1.V.k.A.V.V.V.V.V.V",
".V.V.V.V.V.V.V.q#.`N`1`R.E.C.E.C.E.E.E.E.E.E.E.C.E.b.C.E.C.E.C.E.C.E.C.E.C.E.C.E.C.E.E.E.E.E.E.E.E.C.E.C`R`V`N.6`t.V.V.V.V.V.V.V",
".V.V.V.V.V.V.V.V`S.6.8.m`5.E.C`n.E`n.E.C`n.C`n.E.C`n.E`n.C.E`n.C.E`n.C.E.E.C.E.C.E.C`n.C.E.C`n.C.E`n.C`R`F.S`a.U.V.V.V.V.V.V.V.V",
".V.V.V.V.V.V.V.V.V`S.6`N.h.u`n.C.C.C`n.C`n.C.C`n.C`n.C.C`n.C.E.C`n.C`n.C`n.C`n.C`n.C`n.C`n.C.E.C`n.C`5.m.8`a.U.V.V.V.V.V.V.V.V.V",
".V.V.V.V.V.V.V.V.V.V`S.k.V.k.u`R`n.E.C`n.C`n.C.E`R.E`R.E`R.E`R.E`R.E`R.E.C`n.C`n.C`n.C`n`R.E`R.E`R`5`6.8.6.U.V.V.V.V.V.V.V.V.V.V",
".V.V.V.V.V.V.V.V.V.V.V.G.h`N.X.E.u`R`n`R`R`R.E`R.C`R.E`R.C`R.C`R.E`R.C`R`R`R.E`R`R.E`R`R.E`R.C`5`R.v`N.2`t.V.V.V.V.V.V.V.V.V.V.V",
".V.V.V.V.V.V.V.V.V.V.V.V`J`z`t.S.2`5`#`R.E`R`R`R.E`R`R`R.E`R.E`R`R`R.E`R.E`R`R`R`R`R.E`R`R`5.u.h`J##.K`h.V.V.V.V.V.V.V.V.V.V.V.V",
".V.V.V.V.V.V.V.V.V.V.V.V.V`N.6.k.f.G.K.u`#`R`R`R`R`R`R`R`R`R`R`R`R`R`R`R`R`R`R.E`R`R`R`5.u.O`t.8.d.k.8.V.V.V.V.V.V.V.V.V.V.V.V.V",
".V.V.V.V.V.V.V.V.V.V.V.V.V.V.V`h.K.U`N.q.W`R`#`5`R`R`R`R`R`R`R.E`R`R`R`R`R.E`5`R`5`#`R.Y.G`N`a`z.q.V.V.V.V.V.V.V.V.V.V.V.V.V.V.V",
".V.V.V.V.V.V.V.V.V.V.V.V.V.V.V.V.V`t`1`M.S`J.U.Y.E`#`#`5`5`5`5.u`5`5`5`5`#`#`#`R`1.6.A.f.U.K.v.V.V.V.V.V.V.V.V.V.V.V.V.V.V.V.V.V",
".V.V.V.V.V.V.V.V.V.V.V.V.V.V.V.V.V.V.V.q`c.W.X.f.S.q.U`6`e`U.E.E.E.b`U`e`6`M.G`s.f.G`6.h`t.V.V.V.V.V.V.V.V.V.V.V.V.V.V.V.V.V.V.V",
".V.V.V.V.V.V.V.V.V.V.V.V.V.V.V.V.V.V.V.V.V.f.v`6.K.k.v`h.f`s.f.S.S`s.f.S.A`S#..K.W`a`J.V.V.V.V.V.V.V.V.V.V.V.V.V.V.V.V.V.V.V.V.V",
".V.V.V.V.V.V.V.V.V.V.V.V.V.V.V.V.V.V.V.V.V.V.V.V`N`h.v.d.h.K.K.K.K.K.K.h#.`a`h.8.V.V.V.V.V.V.V.V.V.V.V.V.V.V.V.V.V.V.V.V.V.V.V.V"
};
